<?xml version="1.0" standalone="no"?><!DOCTYPE svg PUBLIC "-//W3C//DTD SVG 1.1//EN" "http://www.w3.org/Graphics/SVG/1.1/DTD/svg11.dtd"><svg t="1530353977659" class="icon" style="" viewBox="0 0 1024 1024" version="1.1" xmlns="http://www.w3.org/2000/svg" p-id="5439" xmlns:xlink="http://www.w3.org/1999/xlink" width="32" height="32"><defs><style type="text/css"></style></defs><path d="M906.466632 230.531444L117.532345 230.531444c-24.963555 0-45.199435-20.23588-45.199435-45.199435s20.23588-45.199435 45.199435-45.199435l788.934287 0c24.963555 0 45.199435 20.23588 45.199435 45.199435S931.430186 230.531444 906.466632 230.531444zM906.466632 557.197388L117.532345 557.197388c-24.963555 0-45.199435-20.233833-45.199435-45.197388 0-24.963555 20.23588-45.199435 45.199435-45.199435l788.934287 0c24.963555 0 45.199435 20.23588 45.199435 45.199435C951.666066 536.963555 931.430186 557.197388 906.466632 557.197388zM906.466632 883.868449L117.532345 883.868449c-24.963555 0-45.199435-20.23588-45.199435-45.199435s20.23588-45.199435 45.199435-45.199435l788.934287 0c24.963555 0 45.199435 20.23588 45.199435 45.199435S931.430186 883.868449 906.466632 883.868449z" fill="#272636" p-id="5440"></path></svg>