<?xml version="1.0" standalone="no"?><!DOCTYPE svg PUBLIC "-//W3C//DTD SVG 1.1//EN" "http://www.w3.org/Graphics/SVG/1.1/DTD/svg11.dtd"><svg t="1530355893781" class="icon" style="" viewBox="0 0 1024 1024" version="1.1" xmlns="http://www.w3.org/2000/svg" p-id="4263" xmlns:xlink="http://www.w3.org/1999/xlink" width="32" height="32"><defs><style type="text/css"></style></defs><path d="M823.652174 231.308346c3.582209-10.746627 6.652674-21.493253 6.652674-33.775113v-32.751624c0-54.244878-46.056972-99.278361-102.86057-99.278361H609.231384c-10.746627-1.535232-41.451274-27.634183-62.944527-53.221389-6.652674-7.676162-16.375812-11.770115-28.145927-12.281859-10.746627 0.511744-20.981509 5.117441-26.610695 13.817091-17.3993 24.051974-44.009995 49.63918-52.197901 51.686157H317.537231c-56.803598 0-102.86057 44.521739-102.860569 99.278361 0 18.422789 15.352324 32.751624 33.775112 32.751624 18.422789 0 33.775112-14.84058 33.775113-32.751624s15.352324-32.751624 33.775112-32.751624h123.330335c29.169415 0 58.850575-24.051974 80.855572-47.592204 24.051974 23.028486 56.291854 47.592204 86.996502 47.592204h118.724637c18.422789 0 33.775112 14.84058 33.775113 32.751624v32.751624c0 13.817091-8.69965 26.098951-21.493253 30.704648H154.290855C97.487256 228.237881 51.430285 272.247876 51.430285 327.004498v597.717141c0 54.244878 46.056972 99.278361 102.86057 99.278361h715.41829c56.291854 0 102.86057-44.521739 102.86057-99.278361V330.074963c-0.511744-39.916042-25.075462-74.202899-60.385807-89.555223-12.281859-5.629185-74.202899-8.69965-88.531734-9.211394z m46.056971 725.653173H154.290855c-18.422789 0-33.775112-14.84058-33.775113-32.751624V332.121939c0-18.422789 15.352324-35.310345 33.775113-35.310345h715.41829c18.934533 0 33.775112 14.84058 33.775113 32.751624v594.646677c0 17.911044-15.352324 32.751624-33.775113 32.751624z" fill="#424242" p-id="4264"></path><path d="M698.274863 491.274363l-249.731135 243.590205L338.006997 625.351324c-13.305347-13.305347-34.798601-13.305347-48.103949-0.511744-13.817091 12.793603-13.817091 33.775112-0.511744 46.568716l134.588706 133.565217c2.046977 2.046977 5.117441 3.070465 7.164418 4.605697 1.023488 0.511744 2.046977 1.535232 3.582209 2.558721 4.605697 1.535232 8.69965 2.558721 13.305347 2.558721 4.605697 0 8.69965-1.023488 12.793603-2.558721 1.023488-0.511744 2.046977-1.535232 3.582209-2.046976 2.558721-1.535232 5.629185-2.558721 7.676162-4.605698l273.783108-267.130434c13.305347-13.305347 13.305347-33.775112 0-46.568716-12.281859-13.817091-33.775112-13.817091-47.592203-0.511744z" fill="#424242" p-id="4265"></path></svg>