<?xml version="1.0" standalone="no"?><!DOCTYPE svg PUBLIC "-//W3C//DTD SVG 1.1//EN" "http://www.w3.org/Graphics/SVG/1.1/DTD/svg11.dtd"><svg t="1532253233736" class="icon" style="" viewBox="0 0 1024 1024" version="1.1" xmlns="http://www.w3.org/2000/svg" p-id="1058" xmlns:xlink="http://www.w3.org/1999/xlink" width="32" height="32"><defs><style type="text/css"></style></defs><path d="M226.5 73C151 73 89.6 134.4 89.6 209.8c0 68.5 50.6 125.2 116.4 135.1v583.9c0 15.4 12.5 27.9 27.9 27.9s27.9-12.5 27.9-27.9v-587c58.3-15.7 101.5-68.8 101.5-132 0-75.4-61.4-136.8-136.8-136.8z m17.7 215.8c-3.2-1.3-6.6-2-10.3-2-5 0-9.6 1.4-13.7 3.7-41.8-3.2-74.8-38.1-74.8-80.7 0-44.7 36.3-81 81-81s81 36.3 81 81c0.1 38.6-27 70.9-63.2 79zM820.2 688.9V91.4c0-15.4-12.5-27.9-27.9-27.9S764.4 76 764.4 91.4v599.7c-59.5 14.9-103.7 68.6-103.7 132.6 0 75.4 61.4 136.8 136.8 136.8s136.8-61.4 136.8-136.8c0.1-67.7-49.4-124-114.1-134.8z m-22.7 215.8c-44.7 0-81-36.3-81-81s36.3-81 81-81 81 36.3 81 81c0 44.6-36.3 81-81 81zM541 405.3V91.4c0-15.4-12.5-27.9-27.9-27.9-15.4 0-27.9 12.5-27.9 27.9v312.1c-64.3 11.2-113.4 67.2-113.4 134.7 0 67.4 49.1 123.5 113.4 134.7V929c0 15.4 12.5 27.9 27.9 27.9 15.4 0 27.9-12.5 27.9-27.9V671c59.9-14.6 104.5-68.5 104.5-132.8 0-64.4-44.6-118.3-104.5-132.9z m-32.3 213.8c-44.7 0-81-36.3-81-81s36.3-81 81-81 81 36.3 81 81-36.3 81-81 81z" fill="#6D737D" p-id="1059"></path></svg>