<?xml version="1.0" standalone="no"?><!DOCTYPE svg PUBLIC "-//W3C//DTD SVG 1.1//EN" "http://www.w3.org/Graphics/SVG/1.1/DTD/svg11.dtd"><svg t="1534094265592" class="icon" style="" viewBox="0 0 1024 1024" version="1.1" xmlns="http://www.w3.org/2000/svg" p-id="2012" xmlns:xlink="http://www.w3.org/1999/xlink" width="32" height="32"><defs><style type="text/css"></style></defs><path d="M1015.296 381.715692c-8.743385-26.466462-31.350154-45.686154-58.368-49.860923l-263.955692-40.96L578.363077 42.692923C566.311385 16.620308 540.396308 0 512.039385 0S457.767385 16.620308 445.715692 42.692923L331.027692 290.894769l-263.955692 40.96C39.975385 336.029538 17.447385 355.249231 8.704 381.715692c-8.743385 26.466462-2.126769 55.689846 17.014154 75.539692L219.096615 658.510769 174.276923 937.668923c-4.489846 28.120615 7.168 56.241231 30.011077 72.782769C216.969846 1019.431385 231.699692 1024 246.508308 1024c12.130462 0 24.418462-3.150769 35.367385-9.216l230.084923-125.085538 230.084923 125.085538C753.152 1020.849231 765.361231 1024 777.570462 1024c14.808615 0 29.538462-4.568615 42.220308-13.548308 22.843077-16.541538 34.500923-44.662154 29.932308-72.782769L804.903385 658.510769l193.457231-201.255385C1017.422769 437.326769 1023.960615 408.182154 1015.296 381.715692z" p-id="2013"></path></svg>