<?xml version="1.0" standalone="no"?><!DOCTYPE svg PUBLIC "-//W3C//DTD SVG 1.1//EN" "http://www.w3.org/Graphics/SVG/1.1/DTD/svg11.dtd"><svg t="1530356128814" class="icon" style="" viewBox="0 0 1024 1024" version="1.1" xmlns="http://www.w3.org/2000/svg" p-id="6566" xmlns:xlink="http://www.w3.org/1999/xlink" width="32" height="32"><defs><style type="text/css"></style></defs><path d="M908.1 346.1c-21.7-51.3-52.8-97.4-92.4-137-39.6-39.6-85.7-70.6-137-92.4C625.6 94.3 569.2 82.9 511 82.9s-114.6 11.4-167.8 33.9c-51.3 21.7-97.4 52.8-137 92.4-39.6 39.6-70.6 85.7-92.4 137C91.4 399.3 80 455.7 80 513.9s11.4 114.6 33.9 167.8c21.7 51.3 52.8 97.4 92.4 137 39.6 39.6 85.7 70.7 137 92.4 53.1 22.5 109.6 33.9 167.8 33.9s114.6-11.4 167.8-33.9c51.3-21.7 97.4-52.8 137-92.4 39.6-39.6 70.7-85.7 92.4-137 22.5-53.1 33.9-109.6 33.9-167.8s-11.6-114.6-34.1-167.8zM511 904.9c-215.6 0-391-175.4-391-391s175.4-391 391-391 391 175.4 391 391-175.4 391-391 391z" fill="#4D4D4D" p-id="6567"></path><path d="M604.5 649.5c-77.7 64.7-54.1-52.1-50.4-67.4s54.1-118.5 16.8-134.8-151.2 67.4-151.2 67.4c-5.3 2.9-18.8 13.4-16.8 16.9 12.6 21.7 67.2-16.8 67.2-16.8s19-15 16.8 0c-6.7 46-39.9 168.4-33.6 202.1 8.4 44.7 78.8 25.8 134.4-33.7s16.8-33.7 16.8-33.7zM565.7 279c-32.4-1.8-60.1 23.1-61.9 55.7-1.8 32.5 23.1 60.3 55.5 62.1 32.4 1.7 60.1-23.2 61.9-55.7s-23.1-60.3-55.5-62.1z" fill="#4D4D4D" p-id="6568"></path></svg>