<?xml version="1.0" standalone="no"?><!DOCTYPE svg PUBLIC "-//W3C//DTD SVG 1.1//EN" "http://www.w3.org/Graphics/SVG/1.1/DTD/svg11.dtd"><svg t="1530355955215" class="icon" style="" viewBox="0 0 1024 1024" version="1.1" xmlns="http://www.w3.org/2000/svg" p-id="4949" xmlns:xlink="http://www.w3.org/1999/xlink" width="32" height="32"><defs><style type="text/css"></style></defs><path d="M829.98882 959.956382H192.956152c-58.122769 0-105.408725-47.504944-105.408725-105.894796V170.530908c0-58.385758 47.285956-105.886609 105.408725-105.886609h637.032668c58.121745 0 105.407702 47.499827 105.407701 105.886609v683.529655c0 58.390875-47.285956 105.895819-105.407701 105.895819zM192.956152 105.57757c-35.552727 0-64.476477 29.138644-64.476477 64.954361v683.529655c0 35.820833 28.92375 64.962547 64.476477 64.962548h637.032668c35.551704 0 64.475454-29.142737 64.475453-64.962548V170.530908c0-35.815717-28.92375-64.954361-64.475453-64.954361H192.956152z" fill="#231815" p-id="4950"></path><path d="M299.12417 491.820402H723.818755v40.932248H299.12417zM299.12417 300.979936H723.818755v40.932248H299.12417zM299.12417 682.680311H723.818755v40.932248H299.12417z" fill="#231815" p-id="4951"></path></svg>