<?xml version="1.0" standalone="no"?><!DOCTYPE svg PUBLIC "-//W3C//DTD SVG 1.1//EN" "http://www.w3.org/Graphics/SVG/1.1/DTD/svg11.dtd"><svg t="1530354984558" class="icon" style="" viewBox="0 0 1024 1024" version="1.1" xmlns="http://www.w3.org/2000/svg" p-id="11522" xmlns:xlink="http://www.w3.org/1999/xlink" width="32" height="32"><defs><style type="text/css"></style></defs><path d="M7.696589 443.704525 7.696589 619.83703c0 196.998758 175.669965 267.305984 238.954906 286.242304l0 70.669526 533.053853 0 0.002047 0 0-70.505797c63.622554-18.66711 238.95593-88.996966 238.95593-297.104691L1018.663323 443.703521 7.696589 443.704525 7.696589 443.704525zM963.516006 609.138381c0 206.405939-207.478682 246.952448-216.256 248.568218l-22.696858 4.056371 0 59.84397L301.795596 921.606939l-0.055296-59.466342-22.256845-4.362342c-8.850944-1.738547-216.645837-44.730778-216.645837-237.940224l0-29.080316 900.677341 0L963.514959 609.138364zM963.516006 553.988301 62.839715 553.988301l0-55.142901 900.677341 0L963.516006 553.988301 963.516006 553.988301zM430.463181 112.856371l569.815552 0 0 55.142912-569.815552 0 0-55.142912ZM26.076979 112.856371l55.145165 0 0 55.142912-55.145165 0 0-55.142912ZM26.076979 223.139123l55.145165 0 0 55.142912-55.145165 0 0-55.142912ZM430.463181 223.139123l569.815552 0 0 55.142912-569.815552 0 0-55.142912ZM91.54263 420.128563c57.87136-12.311347 78.389453-58.247578 81.384858-83.449549l0.189338-207.162163c0-34.474189 37.983642-44.166963 43.098317-44.230349l-0.008192-55.140864c-33.180058 0-98.231194 30.003302-98.231194 99.371213l0 201.754027c-1.076531 5.339648-7.476531 28.448973-37.904794 34.920346L91.54263 420.128563zM201.829786 420.128563c57.872384-12.311347 78.388429-58.247578 81.385882-83.449549l0.189338-207.162163c0-34.474189 37.984666-44.166963 43.099341-44.230349l-0.009216-55.140864c-33.181082 0-98.234266 30.003302-98.234266 99.371213l0 201.754027c-1.077555 5.339648-7.473562 28.448973-37.902746 34.920346L201.829786 420.128563zM312.114995 420.128563c57.875456-12.311347 78.389453-58.247578 81.38793-83.449549l0.18729-207.162163c0-34.474189 37.982618-44.166963 43.100365-44.230349l-0.009216-55.140864c-33.181082 0-98.233242 30.003302-98.233242 99.371213l0 201.754027c-1.078579 5.339648-7.475507 28.448973-37.902746 34.920346L312.114995 420.128563z" p-id="11523"></path></svg>