<?xml version="1.0" standalone="no"?><!DOCTYPE svg PUBLIC "-//W3C//DTD SVG 1.1//EN" "http://www.w3.org/Graphics/SVG/1.1/DTD/svg11.dtd"><svg t="1530355797874" class="icon" style="" viewBox="0 0 1024 1024" version="1.1" xmlns="http://www.w3.org/2000/svg" p-id="3995" xmlns:xlink="http://www.w3.org/1999/xlink" width="32" height="32"><defs><style type="text/css"></style></defs><path d="M512 153.6C314.0608 153.6 153.6 314.0608 153.6 512c0 197.956267 160.4608 358.4 358.4 358.4 197.9392 0 358.4-160.443733 358.4-358.4C870.4 314.0608 709.9392 153.6 512 153.6zM512 836.437333c-178.807467 0-324.266667-146.0736-324.266667-324.7104C187.733333 333.073067 333.192533 187.733333 512 187.733333c178.807467 0 324.266667 145.339733 324.266667 323.9936C836.266667 690.363733 690.807467 836.437333 512 836.437333zM512 505.514667 512 290.133333c0-9.4208-7.645867-17.066667-17.066667-17.066667s-17.066667 7.645867-17.066667 17.066667l0 221.866667c0 0.2048 0.1024 0.3584 0.1024 0.546133-0.426667 4.010667 0.6656 7.867733 3.413333 10.632533l128.341333 128.324267c5.4272 5.461333 15.274667 4.471467 21.930667-2.2016s7.6288-16.4864 2.2016-21.930667L512 505.514667z" p-id="3996"></path></svg>