<?xml version="1.0" standalone="no"?><!DOCTYPE svg PUBLIC "-//W3C//DTD SVG 1.1//EN" "http://www.w3.org/Graphics/SVG/1.1/DTD/svg11.dtd"><svg t="1530354043955" class="icon" style="" viewBox="0 0 1024 1024" version="1.1" xmlns="http://www.w3.org/2000/svg" p-id="6646" xmlns:xlink="http://www.w3.org/1999/xlink" width="32" height="32"><defs><style type="text/css"></style></defs><path d="M512 16.796903C238.245161 16.796903 16.499613 238.393806 16.499613 512c0 273.589677 221.745548 495.203097 495.500387 495.203097 273.70529 0 495.500387-221.613419 495.500387-495.203097C1007.500387 238.393806 785.70529 16.796903 512 16.796903zM817.895226 348.672 451.451871 716.717419c-1.271742 1.932387-2.791226 3.79871-4.525419 5.516387-14.385548 14.385548-37.706323 14.385548-52.058839 0l-182.139871-181.842581c-14.369032-14.385548-14.369032-37.607226 0-51.976258 14.385548-14.352516 37.67329-14.352516 52.00929 0l155.614968 155.268129 345.533935-347.003871c14.385548-14.319484 37.640258-14.319484 52.025806 0C832.264258 311.031742 832.264258 334.269935 817.895226 348.672z" p-id="6647" fill="#9ec341"></path></svg>